<mxfile host="app.diagrams.net" modified="2023-10-01T07:44:32.249Z" agent="Mozilla/5.0 (Windows NT 10.0; Win64; x64) AppleWebKit/537.36 (KHTML, like Gecko) Chrome/116.0.0.0 Safari/537.36 OPR/102.0.0.0" version="21.8.2" etag="1egJzVBfJzfbKuyZOXi4" type="github">
  <diagram name="Page-1" id="_L53pu-eKjSUzyPY_FYC">
    <mxGraphModel>
      <root>
        <mxCell id="0" />
        <mxCell id="1" parent="0" />
      </root>
    </mxGraphModel>
  </diagram>
</mxfile>
